<?xml version="1.0" encoding="UTF-8"?>
<!DOCTYPE svg PUBLIC "-//W3C//DTD SVG 1.1//EN" "http://www.w3.org/Graphics/SVG/1.1/DTD/svg11.dtd">
<svg xmlns="http://www.w3.org/2000/svg" version="1.1" width="512px" height="512px" style="shape-rendering:geometricPrecision; text-rendering:geometricPrecision; image-rendering:optimizeQuality; fill-rule:evenodd; clip-rule:evenodd" xmlns:xlink="http://www.w3.org/1999/xlink">
<g><path style="opacity:0.994" fill="#de4981" d="M 111.5,-0.5 C 114.833,-0.5 118.167,-0.5 121.5,-0.5C 82.0846,40.4164 42.0846,80.9164 1.5,121C 0.905578,121.464 0.238911,121.631 -0.5,121.5C -0.5,118.167 -0.5,114.833 -0.5,111.5C 0.433899,108.344 1.10057,105.011 1.5,101.5C 35.0828,69.4184 68.2495,36.7517 101,3.5C 101.464,2.90558 101.631,2.23891 101.5,1.5C 105.011,1.10057 108.344,0.433899 111.5,-0.5 Z"/></g>
<g><path style="opacity:1" fill="#da4a84" d="M 121.5,-0.5 C 125.833,-0.5 130.167,-0.5 134.5,-0.5C 89.8333,44.8333 44.8333,89.8333 -0.5,134.5C -0.5,130.167 -0.5,125.833 -0.5,121.5C 0.238911,121.631 0.905578,121.464 1.5,121C 42.0846,80.9164 82.0846,40.4164 121.5,-0.5 Z"/></g>
<g><path style="opacity:1" fill="#d64b87" d="M 134.5,-0.5 C 140.5,-0.5 146.5,-0.5 152.5,-0.5C 101.833,50.8333 50.8333,101.833 -0.5,152.5C -0.5,146.5 -0.5,140.5 -0.5,134.5C 44.8333,89.8333 89.8333,44.8333 134.5,-0.5 Z"/></g>
<g><path style="opacity:1" fill="#d14b8b" d="M 152.5,-0.5 C 159.5,-0.5 166.5,-0.5 173.5,-0.5C 115.833,57.8333 57.8333,115.833 -0.5,173.5C -0.5,166.5 -0.5,159.5 -0.5,152.5C 50.8333,101.833 101.833,50.8333 152.5,-0.5 Z"/></g>
<g><path style="opacity:1" fill="#cd4c8e" d="M 173.5,-0.5 C 176.5,-0.5 179.5,-0.5 182.5,-0.5C 121.833,60.8333 60.8333,121.833 -0.5,182.5C -0.5,179.5 -0.5,176.5 -0.5,173.5C 57.8333,115.833 115.833,57.8333 173.5,-0.5 Z"/></g>
<g><path style="opacity:1" fill="#c94c91" d="M 182.5,-0.5 C 188.5,-0.5 194.5,-0.5 200.5,-0.5C 133.833,66.8333 66.8333,133.833 -0.5,200.5C -0.5,194.5 -0.5,188.5 -0.5,182.5C 60.8333,121.833 121.833,60.8333 182.5,-0.5 Z"/></g>
<g><path style="opacity:1" fill="#c34c95" d="M 200.5,-0.5 C 208.167,-0.5 215.833,-0.5 223.5,-0.5C 149.167,74.5 74.5,149.167 -0.5,223.5C -0.5,215.833 -0.5,208.167 -0.5,200.5C 66.8333,133.833 133.833,66.8333 200.5,-0.5 Z"/></g>
<g><path style="opacity:1" fill="#be4d9a" d="M 223.5,-0.5 C 231.5,-0.5 239.5,-0.5 247.5,-0.5C 165.167,82.5 82.5,165.167 -0.5,247.5C -0.5,239.5 -0.5,231.5 -0.5,223.5C 74.5,149.167 149.167,74.5 223.5,-0.5 Z"/></g>
<g><path style="opacity:1" fill="#b84e9e" d="M 247.5,-0.5 C 254.833,-0.5 262.167,-0.5 269.5,-0.5C 179.833,89.8333 89.8333,179.833 -0.5,269.5C -0.5,262.167 -0.5,254.833 -0.5,247.5C 82.5,165.167 165.167,82.5 247.5,-0.5 Z"/></g>
<g><path style="opacity:1" fill="#b14fa3" d="M 269.5,-0.5 C 278.167,-0.5 286.833,-0.5 295.5,-0.5C 261.833,33.5 228.167,67.5 194.5,101.5C 190.895,101.799 187.561,102.965 184.5,105C 164.7,122.465 145.2,140.298 126,158.5C 123.339,163.278 122.839,168.278 124.5,173.5C 123.883,173.389 123.383,173.056 123,172.5C 81.9654,213.701 40.7987,254.701 -0.5,295.5C -0.5,286.833 -0.5,278.167 -0.5,269.5C 89.8333,179.833 179.833,89.8333 269.5,-0.5 Z"/></g>
<g><path style="opacity:1" fill="#ab50a8" d="M 295.5,-0.5 C 303.167,-0.5 310.833,-0.5 318.5,-0.5C 282.167,36.1667 245.833,72.8333 209.5,109.5C 205.834,104.498 200.834,101.831 194.5,101.5C 228.167,67.5 261.833,33.5 295.5,-0.5 Z"/></g>
<g><path style="opacity:1" fill="#a651ac" d="M 318.5,-0.5 C 325.167,-0.5 331.833,-0.5 338.5,-0.5C 288.5,49.8333 238.5,100.167 188.5,150.5C 186.901,150.768 185.568,150.434 184.5,149.5C 192.462,142.708 200.296,135.708 208,128.5C 211.992,122.411 212.492,116.077 209.5,109.5C 245.833,72.8333 282.167,36.1667 318.5,-0.5 Z"/></g>
<g><path style="opacity:1" fill="#9f51b1" d="M 338.5,-0.5 C 347.167,-0.5 355.833,-0.5 364.5,-0.5C 314.5,49.8333 264.5,100.167 214.5,150.5C 205.833,150.5 197.167,150.5 188.5,150.5C 238.5,100.167 288.5,49.8333 338.5,-0.5 Z"/></g>
<g><path style="opacity:1" fill="#9852b6" d="M 364.5,-0.5 C 373.5,-0.5 382.5,-0.5 391.5,-0.5C 341.5,49.8333 291.5,100.167 241.5,150.5C 232.5,150.5 223.5,150.5 214.5,150.5C 264.5,100.167 314.5,49.8333 364.5,-0.5 Z"/></g>
<g><path style="opacity:0.999" fill="#9253bb" d="M 391.5,-0.5 C 394.167,-0.5 396.833,-0.5 399.5,-0.5C 403.539,0.315794 407.539,1.31579 411.5,2.5C 362.5,51.8333 313.5,101.167 264.5,150.5C 256.833,150.5 249.167,150.5 241.5,150.5C 291.5,100.167 341.5,49.8333 391.5,-0.5 Z"/></g>
<g><path style="opacity:0.99" fill="#e3487d" d="M 101.5,1.5 C 101.631,2.23891 101.464,2.90558 101,3.5C 68.2495,36.7517 35.0828,69.4184 1.5,101.5C 12.1527,56.0122 39.1527,24.5122 82.5,7C 88.7165,4.69658 95.0498,2.86325 101.5,1.5 Z"/></g>
<g><path style="opacity:0.998" fill="#8d53bf" d="M 411.5,2.5 C 416.529,2.92046 421.195,4.2538 425.5,6.5C 425.631,7.23891 425.464,7.90558 425,8.5C 377.632,55.7013 330.465,103.035 283.5,150.5C 277.167,150.5 270.833,150.5 264.5,150.5C 313.5,101.167 362.5,51.8333 411.5,2.5 Z"/></g>
<g><path style="opacity:0.999" fill="#8754c4" d="M 425.5,6.5 C 432.236,8.37273 438.57,11.0394 444.5,14.5C 444.631,15.2389 444.464,15.9056 444,16.5C 399.299,61.0346 354.799,105.701 310.5,150.5C 301.5,150.5 292.5,150.5 283.5,150.5C 330.465,103.035 377.632,55.7013 425,8.5C 425.464,7.90558 425.631,7.23891 425.5,6.5 Z"/></g>
<g><path style="opacity:0.998" fill="#8055c9" d="M 444.5,14.5 C 450.17,17.3328 455.503,20.6661 460.5,24.5C 460.649,25.552 460.483,26.552 460,27.5C 418.965,68.368 378.132,109.368 337.5,150.5C 328.5,150.5 319.5,150.5 310.5,150.5C 354.799,105.701 399.299,61.0346 444,16.5C 444.464,15.9056 444.631,15.2389 444.5,14.5 Z"/></g>
<g><path style="opacity:1" fill="#7856ce" d="M 460.5,24.5 C 465.794,28.1266 470.461,32.46 474.5,37.5C 435.883,74.4503 397.883,112.117 360.5,150.5C 352.833,150.5 345.167,150.5 337.5,150.5C 378.132,109.368 418.965,68.368 460,27.5C 460.483,26.552 460.649,25.552 460.5,24.5 Z"/></g>
<g><path style="opacity:0.998" fill="#7357d2" d="M 474.5,37.5 C 478.876,40.8744 482.542,44.8744 485.5,49.5C 449.883,83.4501 414.883,118.117 380.5,153.5C 378.254,152.545 375.921,151.878 373.5,151.5C 369.366,150.515 365.032,150.182 360.5,150.5C 397.883,112.117 435.883,74.4503 474.5,37.5 Z"/></g>
<g><path style="opacity:0.999" fill="#6d58d7" d="M 485.5,49.5 C 489.831,54.1522 493.165,59.4855 495.5,65.5C 494.761,65.369 494.094,65.5357 493.5,66C 458.299,101.368 422.965,136.535 387.5,171.5C 388.492,164.159 386.159,158.159 380.5,153.5C 414.883,118.117 449.883,83.4501 485.5,49.5 Z"/></g>
<g><path style="opacity:0.999" fill="#6659dc" d="M 495.5,65.5 C 498.868,69.5694 501.201,74.2361 502.5,79.5C 502.631,80.2389 502.464,80.9056 502,81.5C 420.299,163.035 338.799,244.701 257.5,326.5C 249.5,326.5 241.5,326.5 233.5,326.5C 280.132,279.368 326.965,232.368 374,185.5C 374.464,184.906 374.631,184.239 374.5,183.5C 380.798,181.532 385.131,177.532 387.5,171.5C 422.965,136.535 458.299,101.368 493.5,66C 494.094,65.5357 494.761,65.369 495.5,65.5 Z"/></g>
<g><path style="opacity:0.998" fill="#605ae1" d="M 502.5,79.5 C 505.274,85.4932 507.274,91.8265 508.5,98.5C 447.5,158.833 386.833,219.5 326.5,280.5C 311.762,273.898 302.762,278.398 299.5,294C 299.656,297.817 300.822,301.317 303,304.5C 310.704,311.708 318.538,318.708 326.5,325.5C 303.673,326.498 280.673,326.831 257.5,326.5C 338.799,244.701 420.299,163.035 502,81.5C 502.464,80.9056 502.631,80.2389 502.5,79.5 Z"/></g>
<g><path style="opacity:0.998" fill="#5a5ae6" d="M 508.5,98.5 C 509.598,102.909 510.598,107.242 511.5,111.5C 511.5,113.5 511.5,115.5 511.5,117.5C 453.86,175.473 396.194,233.473 338.5,291.5C 333.874,288.542 329.874,284.876 326.5,280.5C 386.833,219.5 447.5,158.833 508.5,98.5 Z"/></g>
<g><path style="opacity:1" fill="#fefefe" d="M 194.5,101.5 C 200.834,101.831 205.834,104.498 209.5,109.5C 212.492,116.077 211.992,122.411 208,128.5C 200.296,135.708 192.462,142.708 184.5,149.5C 183.957,149.56 183.624,149.893 183.5,150.5C 246.83,151.5 310.163,151.833 373.5,151.5C 375.921,151.878 378.254,152.545 380.5,153.5C 386.159,158.159 388.492,164.159 387.5,171.5C 385.131,177.532 380.798,181.532 374.5,183.5C 373.833,183.5 373.167,183.5 372.5,183.5C 309.496,183.167 246.496,183.5 183.5,184.5C 183.624,185.107 183.957,185.44 184.5,185.5C 192.462,192.292 200.296,199.292 208,206.5C 213.246,214.957 212.412,222.791 205.5,230C 198.59,234.491 191.59,234.658 184.5,230.5C 181.126,226.124 177.126,222.458 172.5,219.5C 167.875,215.176 163.208,210.843 158.5,206.5C 154.153,202.155 149.486,198.155 144.5,194.5C 141.789,190.788 138.456,187.788 134.5,185.5C 130.79,181.792 127.457,177.792 124.5,173.5C 122.839,168.278 123.339,163.278 126,158.5C 145.2,140.298 164.7,122.465 184.5,105C 187.561,102.965 190.895,101.799 194.5,101.5 Z"/></g>
<g><path style="opacity:1" fill="#545bea" d="M 511.5,117.5 C 511.5,126.5 511.5,135.5 511.5,144.5C 457.784,197.216 404.784,250.549 352.5,304.5C 347.807,300.139 343.141,295.805 338.5,291.5C 396.194,233.473 453.86,175.473 511.5,117.5 Z"/></g>
<g><path style="opacity:1" fill="#4d5cef" d="M 511.5,144.5 C 511.5,152.5 511.5,160.5 511.5,168.5C 462.5,217.167 413.5,265.833 364.5,314.5C 360.202,311.537 356.202,308.203 352.5,304.5C 404.784,250.549 457.784,197.216 511.5,144.5 Z"/></g>
<g><path style="opacity:1" fill="#bea4e0" d="M 184.5,149.5 C 185.568,150.434 186.901,150.768 188.5,150.5C 197.167,150.5 205.833,150.5 214.5,150.5C 223.5,150.5 232.5,150.5 241.5,150.5C 249.167,150.5 256.833,150.5 264.5,150.5C 270.833,150.5 277.167,150.5 283.5,150.5C 292.5,150.5 301.5,150.5 310.5,150.5C 319.5,150.5 328.5,150.5 337.5,150.5C 345.167,150.5 352.833,150.5 360.5,150.5C 365.032,150.182 369.366,150.515 373.5,151.5C 310.163,151.833 246.83,151.5 183.5,150.5C 183.624,149.893 183.957,149.56 184.5,149.5 Z"/></g>
<g><path style="opacity:1" fill="#ac50a7" d="M 124.5,173.5 C 127.457,177.792 130.79,181.792 134.5,185.5C 133.761,185.369 133.094,185.536 132.5,186C 88.2987,230.368 43.9654,274.535 -0.5,318.5C -0.5,310.833 -0.5,303.167 -0.5,295.5C 40.7987,254.701 81.9654,213.701 123,172.5C 123.383,173.056 123.883,173.389 124.5,173.5 Z"/></g>
<g><path style="opacity:1" fill="#475df4" d="M 511.5,168.5 C 511.5,176.167 511.5,183.833 511.5,191.5C 466.117,235.882 421.451,280.882 377.5,326.5C 372.54,323.208 368.207,319.208 364.5,314.5C 413.5,265.833 462.5,217.167 511.5,168.5 Z"/></g>
<g><path style="opacity:1" fill="#c6afe4" d="M 372.5,183.5 C 364.684,184.492 356.684,184.826 348.5,184.5C 340.833,184.5 333.167,184.5 325.5,184.5C 317.833,184.5 310.167,184.5 302.5,184.5C 293.5,184.5 284.5,184.5 275.5,184.5C 267.833,184.5 260.167,184.5 252.5,184.5C 229.661,184.169 206.994,184.503 184.5,185.5C 183.957,185.44 183.624,185.107 183.5,184.5C 246.496,183.5 309.496,183.167 372.5,183.5 Z"/></g>
<g><path style="opacity:0.999" fill="#8655c4" d="M 252.5,184.5 C 260.167,184.5 267.833,184.5 275.5,184.5C 228.167,232.167 180.833,279.833 133.5,327.5C 129.456,330.543 126.123,334.209 123.5,338.5C 87.1667,373.164 51.1667,408.83 15.5,445.5C 13.8639,444.251 12.6972,442.584 12,440.5C 10.2019,436.578 8.70194,432.578 7.5,428.5C 89.7847,347.882 171.451,266.549 252.5,184.5 Z"/></g>
<g><path style="opacity:1" fill="#7f55c9" d="M 275.5,184.5 C 284.5,184.5 293.5,184.5 302.5,184.5C 255.5,231.833 208.5,279.167 161.5,326.5C 152.983,326.174 144.65,326.507 136.5,327.5C 135.5,327.5 134.5,327.5 133.5,327.5C 180.833,279.833 228.167,232.167 275.5,184.5 Z"/></g>
<g><path style="opacity:1" fill="#7856ce" d="M 302.5,184.5 C 310.167,184.5 317.833,184.5 325.5,184.5C 278.5,231.833 231.5,279.167 184.5,326.5C 176.833,326.5 169.167,326.5 161.5,326.5C 208.5,279.167 255.5,231.833 302.5,184.5 Z"/></g>
<g><path style="opacity:1" fill="#7357d2" d="M 325.5,184.5 C 333.167,184.5 340.833,184.5 348.5,184.5C 301.5,231.833 254.5,279.167 207.5,326.5C 199.833,326.5 192.167,326.5 184.5,326.5C 231.5,279.167 278.5,231.833 325.5,184.5 Z"/></g>
<g><path style="opacity:1" fill="#6d58d7" d="M 372.5,183.5 C 373.167,183.5 373.833,183.5 374.5,183.5C 374.631,184.239 374.464,184.906 374,185.5C 326.965,232.368 280.132,279.368 233.5,326.5C 224.833,326.5 216.167,326.5 207.5,326.5C 254.5,279.167 301.5,231.833 348.5,184.5C 356.684,184.826 364.684,184.492 372.5,183.5 Z"/></g>
<g><path style="opacity:1" fill="#a651ac" d="M 134.5,185.5 C 138.456,187.788 141.789,190.788 144.5,194.5C 96.1667,242.5 47.8333,290.5 -0.5,338.5C -0.5,331.833 -0.5,325.167 -0.5,318.5C 43.9654,274.535 88.2987,230.368 132.5,186C 133.094,185.536 133.761,185.369 134.5,185.5 Z"/></g>
<g><path style="opacity:1" fill="#9f51b1" d="M 144.5,194.5 C 149.486,198.155 154.153,202.155 158.5,206.5C 105.5,259.167 52.5,311.833 -0.5,364.5C -0.5,355.833 -0.5,347.167 -0.5,338.5C 47.8333,290.5 96.1667,242.5 144.5,194.5 Z"/></g>
<g><path style="opacity:0.999" fill="#3f5efa" d="M 511.5,191.5 C 511.5,260.833 511.5,330.167 511.5,399.5C 502.296,453.548 471.629,489.382 419.5,507C 412.741,508.715 406.075,510.215 399.5,511.5C 330.167,511.5 260.833,511.5 191.5,511.5C 227.833,474.5 264.5,437.833 301.5,401.5C 308.382,410.217 316.716,411.717 326.5,406C 346.3,388.535 365.8,370.702 385,352.5C 388.265,346.472 388.265,340.472 385,334.5C 382.295,331.964 379.795,329.297 377.5,326.5C 421.451,280.882 466.117,235.882 511.5,191.5 Z"/></g>
<g><path style="opacity:1" fill="#9852b6" d="M 158.5,206.5 C 163.208,210.843 167.875,215.176 172.5,219.5C 114.833,276.833 57.1667,334.167 -0.5,391.5C -0.5,382.5 -0.5,373.5 -0.5,364.5C 52.5,311.833 105.5,259.167 158.5,206.5 Z"/></g>
<g><path style="opacity:0.999" fill="#9253bb" d="M 172.5,219.5 C 177.126,222.458 181.126,226.124 184.5,230.5C 123.087,290.913 62.4202,351.913 2.5,413.5C 1.49129,408.715 0.491292,404.048 -0.5,399.5C -0.5,396.833 -0.5,394.167 -0.5,391.5C 57.1667,334.167 114.833,276.833 172.5,219.5 Z"/></g>
<g><path style="opacity:0.998" fill="#8c54bf" d="M 184.5,185.5 C 206.994,184.503 229.661,184.169 252.5,184.5C 171.451,266.549 89.7847,347.882 7.5,428.5C 5.26156,423.785 3.59489,418.785 2.5,413.5C 62.4202,351.913 123.087,290.913 184.5,230.5C 191.59,234.658 198.59,234.491 205.5,230C 212.412,222.791 213.246,214.957 208,206.5C 200.296,199.292 192.462,192.292 184.5,185.5 Z"/></g>
<g><path style="opacity:1" fill="#fefefe" d="M 326.5,280.5 C 329.874,284.876 333.874,288.542 338.5,291.5C 343.141,295.805 347.807,300.139 352.5,304.5C 356.202,308.203 360.202,311.537 364.5,314.5C 368.207,319.208 372.54,323.208 377.5,326.5C 379.795,329.297 382.295,331.964 385,334.5C 388.265,340.472 388.265,346.472 385,352.5C 365.8,370.702 346.3,388.535 326.5,406C 316.716,411.717 308.382,410.217 301.5,401.5C 299.259,396.316 298.925,390.982 300.5,385.5C 308.814,377.188 317.481,369.188 326.5,361.5C 327.043,361.44 327.376,361.107 327.5,360.5C 263.837,359.5 200.17,359.167 136.5,359.5C 134.315,359.296 132.315,358.63 130.5,357.5C 124.825,352.481 122.491,346.148 123.5,338.5C 126.123,334.209 129.456,330.543 133.5,327.5C 134.5,327.5 135.5,327.5 136.5,327.5C 200.17,327.833 263.837,327.5 327.5,326.5C 327.376,325.893 327.043,325.56 326.5,325.5C 318.538,318.708 310.704,311.708 303,304.5C 300.822,301.317 299.656,297.817 299.5,294C 302.762,278.398 311.762,273.898 326.5,280.5 Z"/></g>
<g><path style="opacity:1" fill="#aba6ee" d="M 326.5,325.5 C 327.043,325.56 327.376,325.893 327.5,326.5C 263.837,327.5 200.17,327.833 136.5,327.5C 144.65,326.507 152.983,326.174 161.5,326.5C 169.167,326.5 176.833,326.5 184.5,326.5C 192.167,326.5 199.833,326.5 207.5,326.5C 216.167,326.5 224.833,326.5 233.5,326.5C 241.5,326.5 249.5,326.5 257.5,326.5C 280.673,326.831 303.673,326.498 326.5,325.5 Z"/></g>
<g><path style="opacity:0.997" fill="#8055c9" d="M 123.5,338.5 C 122.491,346.148 124.825,352.481 130.5,357.5C 95.4731,392.194 60.4731,426.861 25.5,461.5C 21.1688,456.848 17.8355,451.514 15.5,445.5C 51.1667,408.83 87.1667,373.164 123.5,338.5 Z"/></g>
<g><path style="opacity:1" fill="#b3b1f2" d="M 136.5,359.5 C 200.17,359.167 263.837,359.5 327.5,360.5C 327.376,361.107 327.043,361.44 326.5,361.5C 316.013,360.506 305.346,360.172 294.5,360.5C 285.833,360.5 277.167,360.5 268.5,360.5C 260.833,360.5 253.167,360.5 245.5,360.5C 237.833,360.5 230.167,360.5 222.5,360.5C 214.5,360.5 206.5,360.5 198.5,360.5C 189.833,360.5 181.167,360.5 172.5,360.5C 164.833,360.5 157.167,360.5 149.5,360.5C 144.968,360.818 140.634,360.485 136.5,359.5 Z"/></g>
<g><path style="opacity:0.999" fill="#7856ce" d="M 130.5,357.5 C 132.315,358.63 134.315,359.296 136.5,359.5C 140.634,360.485 144.968,360.818 149.5,360.5C 112.535,397.965 75.3681,435.299 38,472.5C 37.5357,473.094 37.369,473.761 37.5,474.5C 32.7923,470.793 28.7923,466.46 25.5,461.5C 60.4731,426.861 95.4731,392.194 130.5,357.5 Z"/></g>
<g><path style="opacity:0.999" fill="#7357d2" d="M 149.5,360.5 C 157.167,360.5 164.833,360.5 172.5,360.5C 131.868,401.632 91.0348,442.632 50,483.5C 49.5357,484.094 49.369,484.761 49.5,485.5C 44.8744,482.542 40.8744,478.876 37.5,474.5C 37.369,473.761 37.5357,473.094 38,472.5C 75.3681,435.299 112.535,397.965 149.5,360.5 Z"/></g>
<g><path style="opacity:0.999" fill="#6d58d7" d="M 172.5,360.5 C 181.167,360.5 189.833,360.5 198.5,360.5C 154.535,404.965 110.368,449.299 66,493.5C 65.5357,494.094 65.369,494.761 65.5,495.5C 59.4855,493.165 54.1522,489.831 49.5,485.5C 49.369,484.761 49.5357,484.094 50,483.5C 91.0348,442.632 131.868,401.632 172.5,360.5 Z"/></g>
<g><path style="opacity:0.998" fill="#6658dc" d="M 198.5,360.5 C 206.5,360.5 214.5,360.5 222.5,360.5C 175.5,408.167 128.167,455.5 80.5,502.5C 74.9736,501.112 69.9736,498.778 65.5,495.5C 65.369,494.761 65.5357,494.094 66,493.5C 110.368,449.299 154.535,404.965 198.5,360.5 Z"/></g>
<g><path style="opacity:0.998" fill="#6059e1" d="M 222.5,360.5 C 230.167,360.5 237.833,360.5 245.5,360.5C 196.5,409.833 147.5,459.167 98.5,508.5C 92.079,507.471 86.079,505.471 80.5,502.5C 128.167,455.5 175.5,408.167 222.5,360.5 Z"/></g>
<g><path style="opacity:0.999" fill="#5a5ae6" d="M 245.5,360.5 C 253.167,360.5 260.833,360.5 268.5,360.5C 218.5,410.833 168.5,461.167 118.5,511.5C 116.167,511.5 113.833,511.5 111.5,511.5C 107.242,510.598 102.909,509.598 98.5,508.5C 147.5,459.167 196.5,409.833 245.5,360.5 Z"/></g>
<g><path style="opacity:1" fill="#545bea" d="M 268.5,360.5 C 277.167,360.5 285.833,360.5 294.5,360.5C 244.5,410.833 194.5,461.167 144.5,511.5C 135.833,511.5 127.167,511.5 118.5,511.5C 168.5,461.167 218.5,410.833 268.5,360.5 Z"/></g>
<g><path style="opacity:1" fill="#4d5cf0" d="M 294.5,360.5 C 305.346,360.172 316.013,360.506 326.5,361.5C 317.481,369.188 308.814,377.188 300.5,385.5C 258.167,427.167 216.167,469.167 174.5,511.5C 164.5,511.5 154.5,511.5 144.5,511.5C 194.5,461.167 244.5,410.833 294.5,360.5 Z"/></g>
<g><path style="opacity:1" fill="#465df5" d="M 300.5,385.5 C 298.925,390.982 299.259,396.316 301.5,401.5C 264.5,437.833 227.833,474.5 191.5,511.5C 185.833,511.5 180.167,511.5 174.5,511.5C 216.167,469.167 258.167,427.167 300.5,385.5 Z"/></g>
</svg>
