<svg xmlns="http://www.w3.org/2000/svg" width="50" height="50"><path d="M33 2c-.12 0-.238.01-.352.027h-.003c-1.657.144-3.001 1.252-4.137 2.604-1.217 1.448-2.283 3.258-3.338 4.96-1.45 2.34-2.869 4.47-3.983 5.194-.575.375-1.086.66-1.607.947a1 1 0 0 0-.002.002c-.993.553-2.059 1.147-3.183 2.272a23.829 23.829 0 0 0-2.59 3.078l.076-.105L.639 26.104a1 1 0 0 0-.203 1.757l9.763 6.694a1 1 0 0 0 1.274-.12l-.551.551a1 1 0 0 0 .432.03c-.134.02.242-.032.673-.032.848 0 2.537.152 4.045 1.057 2.09 1.254 3.26 3.788 3.856 6.11.595 2.32.614 4.299.615 4.367a1 1 0 0 0 1.18.974c.301-.055 3.141-.643 6.142-3.611 1.835-1.814 3.18-3.907 4.336-5.694.895-1.383 1.712-2.632 2.543-3.529.831-.896 1.627-1.424 2.588-1.576.12-.019.257-.03.404-.03 1.562 0 4.359 1.46 6.588 3.028 2.23 1.568 4.035 3.208 4.002 3.178a1 1 0 0 0 1.635-1.012c-2.444-8.55-5.455-17.458-8.375-24.27-1.46-3.405-2.892-6.284-4.254-8.369-.681-1.042-1.342-1.887-2.025-2.515C34.623 2.464 33.885 2 33 2zm0 2c.11 0 .464.115.953.564.489.45 1.08 1.18 1.705 2.137 1.25 1.913 2.656 4.72 4.09 8.065 2.52 5.877 5.08 13.447 7.324 20.949-.662-.532-.705-.642-1.597-1.27-2.347-1.65-5.149-3.392-7.739-3.392-.243 0-.482.017-.716.054-1.518.24-2.734 1.104-3.743 2.192-1.008 1.088-1.86 2.42-2.756 3.803-1.156 1.787-2.427 3.74-4.06 5.355a1 1 0 0 0-.002 0c-1.788 1.769-3.19 2.394-4.104 2.713-.04-.801-.01-1.645-.49-3.516-.66-2.579-1.967-5.65-4.765-7.328a9.175 9.175 0 0 0-2.532-1.03c2.147-1.338 5.267-3.634 7.461-7.013 1.444-2.222 2.91-5.891 4.487-9.78 1.542-3.802 2.873-7.073 4.043-9.331.584-1.13 1.133-2.003 1.593-2.535.461-.532.77-.637.848-.637zm-6.445 7.15a389.415 389.415 0 0 0-1.893 4.604c-1.51 3.726-2.962 7.237-4.154 9.178l-4.543-3.319c.422-.569.914-1.264 1.844-2.193.932-.933 1.746-1.385 2.74-1.938.523-.29 1.088-.604 1.728-1.021 1.688-1.097 2.948-3.153 4.278-5.31zM14.377 22.932l4.97 3.629c-2.185 2.699-5.058 4.633-6.708 5.587-.439.254-.88.5-1.323.745a1 1 0 0 0-1.255.127l.584-.584-7.516-5.15 11.248-4.354z"/></svg>