<svg xmlns="http://www.w3.org/2000/svg" width="50" height="50"><path d="M44.97 4a1 1 0 0 0-.118.012l-21 3.148a1 1 0 0 0-.852.99V23a1 1 0 0 0 1 1h21a1 1 0 0 0 1-1V5a1 1 0 0 0-1.03-1zM44 6.16V22H25V9.012L44 6.16zM19.97 7.75a1 1 0 0 0-.118.012l-15 2.25A1 1 0 0 0 4 11v12a1 1 0 0 0 1 1h15a1 1 0 0 0 1-1V8.75a1 1 0 0 0-1.03-1zM19 9.91V22H6V11.861l13-1.95zM5 26a1 1 0 0 0-1 1v12a1 1 0 0 0 .852.988l15 2.25A1 1 0 0 0 21 41.25V27a1 1 0 0 0-1-1H5zm19 0a1 1 0 0 0-1 1v14.85a1 1 0 0 0 .852.99l21 3.148A1 1 0 0 0 46 45V27a1 1 0 0 0-1-1H24zM6 28h13v12.09L6 38.139V28zm19 0h19v15.84l-19-2.852V28z"/></svg>