<svg xmlns="http://www.w3.org/2000/svg" width="48" height="48"><path fill="#263238" d="M39 43H9a4 4 0 0 1-4-4V9a4 4 0 0 1 4-4h30a4 4 0 0 1 4 4v30a4 4 0 0 1-4 4z"/><path fill="#fafafa" d="M40.565 23.73c-1.611 1.338-3.412 2.511-5.16 3.66-.965.634-1.629.943-2.806 1.039-1.513.124-.899-.939-.353-1.641.301-.388 1.804-1.785 1.094-2.296-.546-.394-1.699.652-2.238.839-2.348.814-3.428-1.725-3.853-3.455-.331-1.347-1.223-.905-2.007-.293-1.225 1.204-2.916 2.066-4.765 2.75-.836.339-.954 1.87.29 2.046.655.092 1.481.039 2.146.057-.218.254-1.113.983-.714 1.453.24.283.965.699 1.265.916.339.246.687.564 1.084.707.771.278 1.329-.562.68-1.108l2.286-.657c.623-.179 1.094.103 1.707.309-1.195.149-2.669.104-3.246 1.397-.498.882-.716 2.467-2.117 2.193-.666-.13-1.972-.747-2.401-1.27-.41-.501-.05-1.697-.079-2.305-.031-.633-.325-1.166-.895-1.462l-.195 3.076c-.104 1.636.768 1.954 2.115 2.743 2.026 1.186 3.966 2.467 5.731 4.021.478.421 1.607 1.943 2.297 1.253.392-.392-.041-.964-.352-1.245L29 35.328c-.091-.08-.367-.382-.219-.516.2-.18.651.54.813.609.045.019-.11-.908-.11-.896a.995.995 0 0 1 1.027-.93c1.538.063 1.24 1.6 1.24 2.529 0-1.109-2.402-1.145-1.315.105 1.291 1.484 2.397-.253 2.876-1.613.406-1.155.148-1.495 1.012-2.288l2.661-2.441c1.187-1.089 2.387-2.168 3.499-3.335.915-.96 1.691-2.009 1.943-3.349.286-1.529-1.467.198-1.862.527z"/><path fill="#d32f2f" d="M24.328 28.612a.298.298 0 0 1-.214-.09 3.25 3.25 0 0 0-.785-.601.3.3 0 0 1 .28-.531c.325.172.639.411.934.712a.3.3 0 0 1-.215.51z"/><path fill="#fafafa" d="M22.797 13.26c-.672-.635-1.431-1.406-1.925-1.406-.331 0-.542.346-.528 1.311.023 1.591-.459 3.148-.919 4.655-.594 1.949-1.866 3.853-3.331 5.242-.63-.204-1.165-.568-1.531-1.219 1.942-2.346 3.607-5.818 3.463-8.914-.095-2.033-.803-2.697-2.034-2.698-.568 0-1.248.142-2.03.356l-2.74.75c-1.398.383-.186 1.199.183 1.881 1.239 2.287.601 4.923.125 7.313-1.07-.465-2.183-.791-3.151-.791-1.498 0-2.648.781-2.755 3.041-.062 1.3.329 1.651.953 1.651.467 0 1.066-.197 1.703-.338a4.883 4.883 0 0 1 1.062-.113c1.1 0 2.202.338 3.178.798 2.732 1.289 4.254 3.336 5.829 5.828.341.54.591.753.771.753.53 0 .45-1.845.307-2.595-.276-1.44-1.117-2.735-1.74-4.047 2.522-.745 5.835-1.834 7.607-3.904 1.879-2.192-.801-5.951-2.497-7.554z"/></svg>