<svg xmlns="http://www.w3.org/2000/svg" width="50" height="50"><path d="M25.002 1c-.101 0-23 7.137-23 7.137v31.336s.241.095.613.25c0 0 22.268 9.279 22.387 9.279.119 0 22.387-9.28 22.387-9.28.372-.154.613-.261.613-.261V8.133S25.103 1 25.002 1zm0 2.049L43.66 8.9l-9.031 2.832-9.627 3.02-9.629-3.02L6.343 8.9 25.003 3.05zm-21 7.213 20 6.271v29.965l-20-8.363V10.262zm42 0v27.873l-20 8.363V16.533l20-6.271zM43.527 15.8l-2.103.724-1.904 14.471-2.374-12.994-1.857.64-2.473 14.967-2.04-13.41-2.301.793 3.072 17.809 2.183-.895 2.5-14.578 2.407 12.568 2.068-.847L43.527 15.8zM12.545 18.1a3.894 3.894 0 0 0-.465.02c-.598.061-1.107.252-1.533.566-.425.314-.755.74-.988 1.279-.233.537-.348 1.166-.348 1.894a6.3 6.3 0 0 0 .334 2.073c.224.645.534 1.254.93 1.828a10.44 10.44 0 0 0 1.427 1.644c.556.523 1.165 1.03 1.827 1.518a18.97 18.97 0 0 1 1.494 1.217c.389.358.695.698.918 1.021.223.323.379.646.463.967.084.321.125.668.125 1.041 0 .744-.217 1.268-.649 1.559-.429.296-1.07.29-1.916-.016a5.185 5.185 0 0 1-1.193-.615 4.069 4.069 0 0 1-.955-.92 4.326 4.326 0 0 1-.631-1.239 4.962 4.962 0 0 1-.23-1.56l-2.364-.832c0 .958.154 1.847.461 2.666a8.585 8.585 0 0 0 2.941 3.932 7.99 7.99 0 0 0 1.973 1.087c.756.28 1.445.418 2.066.415.623-.003 1.155-.14 1.596-.416.443-.276.784-.684 1.024-1.223.24-.54.36-1.202.36-1.986 0-.742-.095-1.441-.284-2.1a7.22 7.22 0 0 0-.871-1.897 10.285 10.285 0 0 0-1.463-1.763 18.066 18.066 0 0 0-2.06-1.71c-1.004-.722-1.745-1.388-2.23-2.001-.482-.61-.724-1.253-.724-1.928 0-.359.05-.675.147-.951.097-.277.25-.495.455-.654.204-.16.461-.252.771-.278.311-.026.683.03 1.11.166.454.145.846.347 1.181.606.335.259.614.56.834.904.22.346.383.726.49 1.137.108.41.162.84.162 1.289l2.473.812c0-.776-.116-1.544-.353-2.306a8.152 8.152 0 0 0-1.02-2.131 7.545 7.545 0 0 0-1.615-1.735 6.594 6.594 0 0 0-2.133-1.113 5.515 5.515 0 0 0-1.537-.267z"/></svg>