<svg xmlns="http://www.w3.org/2000/svg" width="100" height="100" baseProfile="basic"><path fill="#1f212b" d="M72 84H28c-6.617 0-12-5.383-12-12V28c0-6.617 5.383-12 12-12h44c6.617 0 12 5.383 12 12v44c0 6.617-5.383 12-12 12zM28 18c-5.514 0-10 4.486-10 10v44c0 5.514 4.486 10 10 10h44c5.514 0 10-4.486 10-10V28c0-5.514-4.486-10-10-10H28z"/><path fill="#1f212b" d="M21 41.5a.5.5 0 0 1-.5-.5v-6a.5.5 0 0 1 1 0v6a.5.5 0 0 1-.5.5zM34.5 79.5H28c-4.136 0-7.5-3.364-7.5-7.5V43.25a.5.5 0 0 1 1 0V72c0 3.584 2.916 6.5 6.5 6.5h6.5a.5.5 0 0 1 0 1zM72 79.5H59.25a.5.5 0 0 1 0-1H72c3.584 0 6.5-2.916 6.5-6.5v-5.25a.5.5 0 0 1 1 0V72c0 4.136-3.364 7.5-7.5 7.5zM79 63a.5.5 0 0 1-.5-.5v-7a.5.5 0 0 1 1 0v7a.5.5 0 0 1-.5.5zM79 53.125a.5.5 0 0 1-.5-.5V28c0-3.584-2.916-6.5-6.5-6.5h-9.875a.5.5 0 0 1 0-1H72c4.136 0 7.5 3.364 7.5 7.5v24.625a.5.5 0 0 1-.5.5zM60 21.5h-1.5a.5.5 0 0 1 0-1H60a.5.5 0 0 1 0 1zM56.375 21.5H53a.5.5 0 0 1 0-1h3.375a.5.5 0 0 1 0 1zM56.25 34.75a.502.502 0 0 1-.354-.146L44.5 23.207l-3.646 3.646a.5.5 0 0 1-.707-.707l4-4a.5.5 0 0 1 .707 0l11.75 11.75a.5.5 0 0 1-.354.854zM41.75 51.417a.5.5 0 0 1-.354-.853l.003-.003a3.397 3.397 0 0 0-.003-4.79L31.313 35.687a.5.5 0 0 1 0-.707l6.583-6.583a.5.5 0 0 1 .707.707l-6.229 6.229 9.729 9.73a4.386 4.386 0 0 1 1.261 3.532l11.199-11.199a.5.5 0 0 1 .707.707L42.104 51.271a.502.502 0 0 1-.354.146zM39.625 59.031a.5.5 0 0 1-.352-.854l.5-.498a.5.5 0 0 1 .705.709l-.5.498a.503.503 0 0 1-.353.145zM41.25 57.375a.5.5 0 0 1-.349-.857l2.25-2.206a.5.5 0 0 1 .699.715l-2.25 2.206a.503.503 0 0 1-.35.142zM44.875 53.799a.5.5 0 0 1-.352-.854L59.79 37.729a.502.502 0 0 1 .705 0l5.813 5.792a.5.5 0 0 1-.705.709l-5.46-5.44-14.915 14.863a.498.498 0 0 1-.353.146zM68 46.413a.5.5 0 0 1-.353-.146l-.625-.622a.5.5 0 0 1 .705-.709l.625.622a.5.5 0 0 1-.352.855z"/><path fill="#1f212b" d="M46.41 78a.5.5 0 0 1-.353-.146L33.147 64.99a.5.5 0 0 1 0-.708l4.5-4.485a.5.5 0 0 1 .705.709l-4.145 4.131L46.41 76.794l25.935-25.846-3.105-3.094a.5.5 0 0 1 .705-.709l3.461 3.448a.498.498 0 0 1 0 .708L46.763 77.854a.498.498 0 0 1-.353.146z"/></svg>